<?xml version="1.0" encoding="UTF-8" standalone="no"?><!DOCTYPE svg PUBLIC "-//W3C//DTD SVG 1.1//EN" "http://www.w3.org/Graphics/SVG/1.1/DTD/svg11.dtd"><svg width="100%" height="100%" viewBox="0 0 48 48" version="1.1" xmlns="http://www.w3.org/2000/svg" xmlns:xlink="http://www.w3.org/1999/xlink" xml:space="preserve" xmlns:serif="http://www.serif.com/" style="fill-rule:evenodd;clip-rule:evenodd;stroke-linejoin:round;stroke-miterlimit:2;"><path d="M17.928,1.103l0.078,0.002l0.077,0.003l0.078,0.005l0.078,0.005l0.077,0.007l0.077,0.009l0.077,0.009l0.077,0.011l0.077,0.012l0.077,0.013l0.076,0.015l0.076,0.016l0.076,0.017l0.076,0.019l0.075,0.02l0.075,0.021l0.075,0.022l0.074,0.024l0.074,0.024l0.074,0.026l0.073,0.028l0.073,0.028l0.072,0.03l0.072,0.031l0.072,0.033l0.071,0.033l0.07,0.035l0.07,0.036l0.07,0.037l0.069,0.039l0.069,0.04l0.067,0.041l0.068,0.042l0.066,0.043l0.067,0.045l0.065,0.046l0.065,0.047l0.064,0.048l0.063,0.05l8.121,6.452l10.096,-2.373l0.079,-0.018l0.079,-0.016l0.078,-0.015l0.079,-0.014l0.079,-0.012l0.079,-0.011l0.079,-0.009l0.079,-0.008l0.078,-0.007l0.079,-0.006l0.079,-0.004l0.079,-0.002l0.079,-0.002l0.078,0l0.079,0.001l0.078,0.003l0.078,0.004l0.078,0.005l0.078,0.007l0.078,0.007l0.077,0.01l0.078,0.01l0.077,0.012l0.077,0.013l0.076,0.014l0.076,0.015l0.076,0.017l0.076,0.018l0.075,0.019l0.075,0.021l0.075,0.022l0.074,0.023l0.074,0.024l0.074,0.025l0.073,0.027l0.072,0.028l0.072,0.029l0.072,0.031l0.071,0.031l0.071,0.033l0.07,0.034l0.069,0.035l0.07,0.036l0.068,0.038l0.068,0.038l0.067,0.04l0.067,0.041l0.066,0.042l0.065,0.043l0.065,0.045l0.064,0.045l0.063,0.047l0.063,0.048l0.062,0.049l0.061,0.05l0.06,0.051l0.06,0.053l0.059,0.053l0.058,0.054l0.057,0.056l0.056,0.057l0.056,0.058l0.055,0.058l0.053,0.06l0.053,0.061l0.051,0.062l0.051,0.062l0.049,0.063l0.048,0.064l0.047,0.064l0.045,0.065l0.045,0.066l0.043,0.067l0.042,0.067l0.041,0.067l0.039,0.068l0.038,0.069l0.038,0.069l0.035,0.07l0.035,0.07l0.034,0.071l0.032,0.071l0.031,0.072l0.03,0.072l0.028,0.073l0.027,0.073l0.027,0.074l0.024,0.073l0.024,0.075l0.022,0.074l0.021,0.075l0.02,0.075l0.019,0.076l0.017,0.076l0.016,0.076l0.015,0.076l0.013,0.077l0.012,0.076l0.011,0.077l0.01,0.078l0.008,0.077l0.007,0.077l0.006,0.078l0.004,0.078l0.004,0.078l0.002,0.078l0,0.078l-0.001,0.078l-0.002,0.078l-0.003,0.078l-0.005,0.078l-0.006,0.078l-0.007,0.078l-0.009,0.078l-0.01,0.078l-0.011,0.078l-0.013,0.078l-0.014,0.077l-0.015,0.078l-0.016,0.077l-0.018,0.078l-0.02,0.077l-0.021,0.077l-0.022,0.076l-0.023,0.077l-0.025,0.076l-0.026,0.076l-0.027,0.075l-3.628,9.717l5.377,8.869l0.042,0.07l0.039,0.069l0.039,0.07l0.037,0.071l0.036,0.071l0.035,0.072l0.033,0.072l0.032,0.073l0.031,0.073l0.03,0.073l0.028,0.074l0.027,0.074l0.026,0.074l0.024,0.075l0.023,0.075l0.022,0.075l0.02,0.076l0.019,0.076l0.018,0.076l0.017,0.076l0.015,0.077l0.014,0.076l0.013,0.077l0.011,0.077l0.01,0.078l0.009,0.077l0.008,0.077l0.006,0.078l0.005,0.077l0.003,0.078l0.003,0.078l0.001,0.078l0,0.077l-0.002,0.078l-0.003,0.078l-0.004,0.077l-0.005,0.078l-0.007,0.077l-0.008,0.078l-0.009,0.077l-0.011,0.077l-0.012,0.077l-0.013,0.077l-0.014,0.077l-0.016,0.076l-0.017,0.077l-0.019,0.076l-0.019,0.076l-0.021,0.075l-0.022,0.076l-0.024,0.075l-0.025,0.074l-0.026,0.075l-0.027,0.074l-0.029,0.073l-0.03,0.073l-0.032,0.073l-0.032,0.073l-0.034,0.072l-0.035,0.071l-0.037,0.071l-0.038,0.071l-0.039,0.07l-0.04,0.07l-0.042,0.069l-0.042,0.068l-0.044,0.067l-0.045,0.066l-0.046,0.065l-0.047,0.065l-0.047,0.063l-0.049,0.063l-0.05,0.061l-0.051,0.061l-0.051,0.06l-0.053,0.058l-0.053,0.058l-0.055,0.057l-0.055,0.055l-0.056,0.055l-0.057,0.054l-0.058,0.053l-0.059,0.051l-0.059,0.051l-0.061,0.049l-0.061,0.049l-0.061,0.047l-0.063,0.047l-0.063,0.045l-0.064,0.045l-0.065,0.043l-0.065,0.042l-0.067,0.041l-0.066,0.04l-0.068,0.038l-0.068,0.038l-0.068,0.036l-0.07,0.036l-0.069,0.034l-0.071,0.033l-0.071,0.032l-0.071,0.03l-0.072,0.03l-0.073,0.028l-0.073,0.027l-0.074,0.026l-0.074,0.025l-0.074,0.023l-0.075,0.022l-0.075,0.021l-0.076,0.02l-0.076,0.018l-0.077,0.018l-0.076,0.015l-0.078,0.015l-0.077,0.013l-0.078,0.012l-0.078,0.011l-0.079,0.01l-0.079,0.008l-0.079,0.006l-0.079,0.006l-0.079,0.004l-0.08,0.003l-0.08,0.001l-0.08,0l-0.08,-0.002l-0.081,-0.002l-11.115,-0.598l-0.018,0.031l-0.055,0.089l-0.09,0.143l-0.122,0.194l-0.074,0.115l-0.081,0.125l-0.089,0.136l-0.097,0.145l-0.104,0.155l-0.111,0.164l-0.118,0.172l-0.125,0.18l-0.131,0.187l-0.138,0.194l-0.144,0.2l-0.151,0.205l-0.156,0.211l-0.163,0.215l-0.167,0.22l-0.086,0.111l-0.088,0.112l-0.088,0.112l-0.09,0.114l-0.092,0.114l-0.092,0.114l-0.094,0.115l-0.095,0.116l-0.096,0.116l-0.097,0.116l-0.099,0.116l-0.1,0.116l-0.1,0.117l-0.102,0.117l-0.103,0.116l-0.104,0.117l-0.105,0.116l-0.106,0.116l-0.107,0.116l-0.108,0.115l-0.109,0.115l-0.11,0.114l-0.11,0.114l-0.112,0.113l-0.112,0.113l-0.113,0.111l-0.115,0.111l-0.114,0.11l-0.116,0.109l-0.116,0.108l-0.118,0.107l-0.117,0.106l-0.119,0.105l-0.119,0.103l-0.12,0.102l-0.12,0.1l-0.121,0.099l-0.122,0.098l-0.122,0.095l-0.123,0.094l-0.123,0.093l-0.124,0.09l-0.124,0.089l-0.125,0.086l-0.125,0.085l-0.126,0.083l-0.125,0.08l-0.127,0.078l-0.126,0.076l-0.127,0.074l-0.064,0.035l-0.064,0.036l-0.063,0.034l-0.064,0.034l-0.064,0.034l-0.064,0.032l-0.064,0.032l-0.064,0.032l-0.064,0.03l-0.064,0.031l-0.064,0.029l-0.065,0.029l-0.064,0.027l-0.064,0.028l-0.065,0.026l-0.064,0.026l-0.065,0.025l-0.064,0.024l-0.065,0.024l-0.064,0.023l-0.065,0.022l-0.064,0.021l-0.065,0.021l-0.064,0.019l-0.065,0.019l-0.065,0.018l-0.064,0.017l-0.065,0.017l-0.065,0.015l-0.064,0.015l-0.065,0.014l-0.065,0.013l-0.064,0.012l-0.065,0.011l-0.064,0.011l-0.065,0.009l-0.065,0.009l-0.064,0.007l-0.065,0.007l-0.064,0.006l-0.065,0.005l-0.064,0.004l-0.064,0.003l-0.065,0.002l-0.064,0.001l-0.064,0l-0.065,-0.001l-0.064,-0.002l-0.064,-0.003l-0.064,-0.003l-0.064,-0.005l-0.064,-0.006l-0.064,-0.007l-0.064,-0.008l-0.064,-0.009l-0.063,-0.01l-0.064,-0.012l-0.063,-0.012l-0.064,-0.013l-0.063,-0.015l-0.064,-0.015l-0.063,-0.017l-0.063,-0.018l-0.063,-0.019l-0.063,-0.021l-0.063,-0.022l-0.062,-0.023l-0.062,-0.024l-0.061,-0.024l-0.061,-0.026l-0.06,-0.026l-0.059,-0.027l-0.059,-0.028l-0.059,-0.028l-0.058,-0.03l-0.058,-0.03l-0.057,-0.031l-0.056,-0.032l-0.056,-0.032l-0.056,-0.033l-0.055,-0.034l-0.054,-0.035l-0.054,-0.035l-0.054,-0.036l-0.053,-0.037l-0.053,-0.037l-0.052,-0.038l-0.051,-0.039l-0.052,-0.04l-0.05,-0.04l-0.051,-0.041l-0.049,-0.041l-0.05,-0.042l-0.048,-0.043l-0.049,-0.044l-0.048,-0.044l-0.047,-0.044l-0.047,-0.045l-0.047,-0.046l-0.046,-0.047l-0.045,-0.047l-0.045,-0.047l-0.045,-0.049l-0.044,-0.048l-0.044,-0.05l-0.044,-0.049l-0.043,-0.051l-0.042,-0.051l-0.042,-0.051l-0.042,-0.052l-0.041,-0.053l-0.041,-0.053l-0.04,-0.053l-0.04,-0.054l-0.04,-0.055l-0.039,-0.055l-0.038,-0.055l-0.039,-0.056l-0.038,-0.057l-0.037,-0.056l-0.037,-0.058l-0.037,-0.057l-0.036,-0.059l-0.036,-0.058l-0.07,-0.118l-0.069,-0.12l-0.068,-0.122l-0.066,-0.123l-0.064,-0.124l-0.063,-0.126l-0.061,-0.127l-0.06,-0.128l-0.058,-0.13l-0.057,-0.13l-0.056,-0.132l-0.054,-0.132l-0.053,-0.134l-0.051,-0.135l-0.05,-0.135l-0.049,-0.136l-0.047,-0.137l-0.047,-0.137l-0.044,-0.139l-0.044,-0.138l-0.042,-0.139l-0.042,-0.14l-0.04,-0.14l-0.038,-0.14l-0.038,-0.141l-0.036,-0.141l-0.036,-0.14l-0.034,-0.141l-0.033,-0.141l-0.032,-0.141l-0.031,-0.141l-0.03,-0.141l-0.029,-0.14l-0.028,-0.141l-0.027,-0.139l-0.025,-0.14l-0.025,-0.139l-0.024,-0.139l-0.023,-0.138l-0.023,-0.137l-0.021,-0.137l-0.02,-0.136l-0.02,-0.135l-0.019,-0.134l-0.018,-0.134l-0.017,-0.132l-0.016,-0.132l-0.016,-0.13l-0.015,-0.129l-0.014,-0.128l-0.026,-0.252l-0.023,-0.247l-0.021,-0.241l-0.018,-0.234l-0.017,-0.228l-0.014,-0.22l-0.012,-0.212l-0.01,-0.204l-0.008,-0.195l-0.007,-0.186l-0.006,-0.177l-0.004,-0.166l-0.003,-0.155l-0.002,-0.145l-0.001,-0.133l-0.001,-0.121l0.001,-0.203l0.002,-0.151l0.002,-0.093l0.001,-0.031l-9.564,-4.015l-0.074,-0.032l-0.073,-0.033l-0.072,-0.034l-0.072,-0.035l-0.071,-0.036l-0.07,-0.038l-0.07,-0.039l-0.068,-0.04l-0.068,-0.04l-0.067,-0.042l-0.066,-0.043l-0.065,-0.045l-0.065,-0.045l-0.064,-0.046l-0.062,-0.047l-0.062,-0.048l-0.061,-0.049l-0.06,-0.05l-0.06,-0.051l-0.058,-0.052l-0.057,-0.053l-0.057,-0.054l-0.055,-0.055l-0.055,-0.056l-0.053,-0.056l-0.053,-0.058l-0.051,-0.058l-0.051,-0.059l-0.05,-0.06l-0.048,-0.06l-0.048,-0.062l-0.046,-0.062l-0.046,-0.063l-0.044,-0.064l-0.044,-0.064l-0.042,-0.066l-0.041,-0.066l-0.04,-0.066l-0.039,-0.068l-0.038,-0.068l-0.037,-0.068l-0.036,-0.07l-0.034,-0.07l-0.034,-0.07l-0.032,-0.071l-0.031,-0.072l-0.03,-0.072l-0.028,-0.073l-0.028,-0.074l-0.026,-0.074l-0.025,-0.074l-0.024,-0.075l-0.022,-0.076l-0.022,-0.076l-0.02,-0.076l-0.019,-0.077l-0.017,-0.077l-0.016,-0.078l-0.015,-0.078l-0.014,-0.079l-0.012,-0.079l-0.011,-0.079l-0.009,-0.08l-0.009,-0.08l-0.007,-0.08l-0.005,-0.081l-0.004,-0.08l-0.003,-0.079l-0.001,-0.08l0,-0.08l0.001,-0.079l0.003,-0.08l0.004,-0.079l0.006,-0.078l0.006,-0.079l0.008,-0.078l0.01,-0.079l0.01,-0.077l0.012,-0.078l0.014,-0.077l0.014,-0.077l0.016,-0.077l0.017,-0.076l0.018,-0.076l0.02,-0.076l0.021,-0.075l0.022,-0.075l0.023,-0.074l0.025,-0.074l0.026,-0.073l0.027,-0.073l0.028,-0.073l0.029,-0.072l0.031,-0.071l0.032,-0.071l0.033,-0.071l0.034,-0.069l0.035,-0.07l0.036,-0.068l0.038,-0.068l0.039,-0.068l0.039,-0.067l0.041,-0.066l0.042,-0.066l0.044,-0.064l0.044,-0.064l0.045,-0.064l0.047,-0.063l0.047,-0.062l0.049,-0.061l0.05,-0.06l0.05,-0.06l0.052,-0.059l0.053,-0.058l0.054,-0.057l0.055,-0.056l0.056,-0.056l0.057,-0.055l0.058,-0.053l0.059,-0.053l0.06,-0.052l0.061,-0.051l0.062,-0.05l0.062,-0.049l0.064,-0.048l0.065,-0.047l0.066,-0.046l0.067,-0.045l8.646,-5.729l0.863,-10.336l0.007,-0.08l0.009,-0.08l0.01,-0.08l0.011,-0.079l0.013,-0.079l0.014,-0.078l0.015,-0.078l0.017,-0.077l0.018,-0.078l0.019,-0.076l0.021,-0.076l0.021,-0.076l0.023,-0.075l0.025,-0.075l0.025,-0.074l0.027,-0.074l0.028,-0.073l0.029,-0.073l0.03,-0.072l0.031,-0.072l0.033,-0.071l0.034,-0.07l0.035,-0.07l0.036,-0.069l0.037,-0.068l0.038,-0.068l0.04,-0.067l0.04,-0.066l0.042,-0.066l0.043,-0.065l0.043,-0.064l0.045,-0.064l0.046,-0.062l0.047,-0.062l0.048,-0.062l0.049,-0.06l0.05,-0.06l0.051,-0.058l0.052,-0.058l0.053,-0.057l0.054,-0.057l0.055,-0.055l0.056,-0.054l0.056,-0.054l0.058,-0.052l0.059,-0.052l0.059,-0.051l0.061,-0.05l0.061,-0.048l0.062,-0.048l0.064,-0.047l0.064,-0.046l0.064,-0.045l0.066,-0.043l0.067,-0.043l0.067,-0.042l0.068,-0.04l0.069,-0.04l0.07,-0.038l0.07,-0.037l0.072,-0.036l0.072,-0.035l0.073,-0.034l0.073,-0.033l0.074,-0.031l0.075,-0.03l0.075,-0.028l0.075,-0.028l0.075,-0.026l0.076,-0.024l0.076,-0.023l0.076,-0.022l0.077,-0.021l0.076,-0.019l0.077,-0.018l0.077,-0.017l0.078,-0.015l0.077,-0.014l0.077,-0.012l0.078,-0.012l0.078,-0.009l0.078,-0.009l0.077,-0.007l0.078,-0.006l0.078,-0.005l0.078,-0.003l0.078,-0.003l0.078,0l0.078,0Zm-0.09,3.571l-0.019,0.001l-0.018,0.001l-0.018,0.001l-0.018,0.001l-0.018,0.002l-0.019,0.002l-0.018,0.002l-0.018,0.003l-0.018,0.003l-0.018,0.003l-0.018,0.004l-0.018,0.003l-0.017,0.005l-0.018,0.004l-0.018,0.005l-0.018,0.005l-0.018,0.005l-0.017,0.006l-0.018,0.006l-0.018,0.007l-0.017,0.006l-0.018,0.007l-0.017,0.008l-0.018,0.007l-0.017,0.008l-0.017,0.009l-0.017,0.008l-0.016,0.009l-0.017,0.009l-0.016,0.009l-0.016,0.009l-0.015,0.01l-0.016,0.01l-0.015,0.01l-0.015,0.011l-0.015,0.01l-0.015,0.011l-0.014,0.011l-0.015,0.012l-0.014,0.011l-0.013,0.012l-0.014,0.012l-0.014,0.012l-0.013,0.013l-0.013,0.013l-0.013,0.013l-0.012,0.013l-0.013,0.013l-0.012,0.014l-0.012,0.014l-0.012,0.013l-0.011,0.015l-0.011,0.014l-0.011,0.015l-0.011,0.014l-0.011,0.015l-0.01,0.015l-0.01,0.016l-0.01,0.015l-0.009,0.016l-0.01,0.015l-0.009,0.016l-0.008,0.016l-0.009,0.016l-0.008,0.017l-0.008,0.016l-0.007,0.017l-0.008,0.016l-0.007,0.017l-0.007,0.017l-0.006,0.017l-0.006,0.017l-0.006,0.018l-0.006,0.017l-0.005,0.017l-0.005,0.018l-0.005,0.018l-0.004,0.018l-0.005,0.018l-0.004,0.018l-0.003,0.018l-0.003,0.018l-0.003,0.019l-0.003,0.018l-0.002,0.019l-0.003,0.019l-0.003,0.034l-0.861,10.321l-0.029,0.246l-0.046,0.243l-0.063,0.24l-0.08,0.235l-0.095,0.229l-0.111,0.221l-0.127,0.213l-0.14,0.204l-0.155,0.194l-0.168,0.183l-0.179,0.17l-0.192,0.158l-0.201,0.144l-8.634,5.72l-0.028,0.02l-0.016,0.011l-0.015,0.011l-0.015,0.011l-0.015,0.011l-0.014,0.012l-0.015,0.012l-0.014,0.012l-0.013,0.012l-0.014,0.013l-0.013,0.013l-0.013,0.012l-0.013,0.014l-0.012,0.013l-0.013,0.013l-0.012,0.014l-0.012,0.014l-0.011,0.014l-0.012,0.014l-0.011,0.015l-0.01,0.014l-0.011,0.015l-0.01,0.015l-0.011,0.015l-0.009,0.016l-0.01,0.015l-0.009,0.016l-0.009,0.016l-0.009,0.016l-0.009,0.016l-0.008,0.016l-0.008,0.017l-0.008,0.016l-0.007,0.017l-0.007,0.017l-0.007,0.016l-0.007,0.018l-0.006,0.017l-0.006,0.017l-0.006,0.017l-0.006,0.018l-0.005,0.017l-0.005,0.018l-0.004,0.017l-0.004,0.018l-0.004,0.018l-0.004,0.018l-0.004,0.018l-0.003,0.018l-0.002,0.018l-0.003,0.018l-0.002,0.018l-0.002,0.018l-0.001,0.018l-0.002,0.019l-0.001,0.018l0,0.019l-0.001,0.018l0,0.019l0.001,0.018l0,0.019l0.001,0.019l0.002,0.019l0.001,0.019l0.002,0.019l0.002,0.019l0.003,0.019l0.003,0.018l0.003,0.018l0.003,0.019l0.004,0.018l0.004,0.018l0.005,0.018l0.004,0.018l0.005,0.017l0.006,0.018l0.005,0.017l0.006,0.018l0.006,0.017l0.006,0.017l0.007,0.017l0.007,0.017l0.007,0.016l0.008,0.017l0.008,0.017l0.008,0.016l0.008,0.016l0.009,0.016l0.008,0.016l0.01,0.016l0.009,0.016l0.01,0.015l0.01,0.015l0.01,0.015l0.01,0.015l0.011,0.015l0.011,0.015l0.011,0.014l0.011,0.015l0.012,0.014l0.012,0.013l0.012,0.014l0.012,0.014l0.013,0.013l0.013,0.013l0.013,0.013l0.013,0.012l0.013,0.013l0.014,0.012l0.014,0.012l0.014,0.011l0.014,0.012l0.014,0.011l0.015,0.011l0.015,0.011l0.015,0.01l0.015,0.01l0.015,0.01l0.016,0.01l0.016,0.01l0.016,0.009l0.016,0.009l0.016,0.009l0.017,0.008l0.017,0.009l0.017,0.008l0.017,0.007l0.032,0.014l9.549,4.009l0.229,0.105l0.221,0.122l0.212,0.137l0.202,0.152l0.191,0.166l0.178,0.178l0.165,0.191l0.152,0.202l0.136,0.212l0.122,0.222l0.105,0.229l0.089,0.236l0.072,0.242l0.055,0.247l0.037,0.249l0.02,0.252l0.002,0.252l-0.001,0.019l-0.001,0.065l-0.002,0.118l0,0.175l0,0.099l0.001,0.114l0.002,0.126l0.003,0.135l0.003,0.146l0.005,0.155l0.006,0.164l0.008,0.172l0.009,0.181l0.01,0.187l0.013,0.195l0.014,0.201l0.016,0.207l0.019,0.212l0.02,0.217l0.024,0.225l0.011,0.108l0.013,0.113l0.014,0.114l0.014,0.114l0.015,0.115l0.016,0.116l0.016,0.116l0.017,0.117l0.017,0.117l0.019,0.117l0.019,0.118l0.019,0.118l0.021,0.118l0.021,0.118l0.022,0.118l0.022,0.117l0.024,0.118l0.024,0.117l0.025,0.117l0.025,0.117l0.027,0.116l0.027,0.115l0.028,0.115l0.028,0.115l0.03,0.113l0.03,0.113l0.031,0.111l0.031,0.111l0.033,0.109l0.033,0.109l0.033,0.107l0.035,0.106l0.035,0.104l0.035,0.103l0.037,0.101l0.037,0.1l0.037,0.098l0.038,0.097l0.039,0.094l0.039,0.092l0.039,0.091l0.04,0.088l0.04,0.087l0.041,0.084l0.041,0.081l0.041,0.08l0.041,0.077l0.041,0.074l0.042,0.072l0.045,0.076l0.017,0.028l0.021,0.033l0.02,0.033l0.021,0.031l0.02,0.031l0.021,0.031l0.02,0.03l0.021,0.029l0.02,0.028l0.02,0.028l0.02,0.027l0.02,0.027l0.02,0.025l0.02,0.026l0.019,0.024l0.019,0.024l0.02,0.023l0.019,0.022l0.019,0.022l0.018,0.021l0.019,0.02l0.018,0.02l0.018,0.019l0.018,0.019l0.018,0.017l0.017,0.018l0.018,0.016l0.017,0.016l0.017,0.016l0.016,0.015l0.017,0.014l0.016,0.014l0.016,0.013l0.015,0.013l0.016,0.012l0.015,0.012l0.015,0.011l0.015,0.011l0.014,0.01l0.014,0.01l0.015,0.01l0.014,0.009l0.013,0.008l0.014,0.009l0.013,0.008l0.014,0.008l0.013,0.007l0.013,0.007l0.013,0.007l0.013,0.007l0.013,0.006l0.013,0.006l0.014,0.006l0.013,0.006l0.013,0.005l0.013,0.006l0.017,0.006l0.014,0.003l0.011,0.002l0.012,0.002l0.013,0.001l0.015,0.001l0.017,0.001l0.01,0l0.009,0l0.011,-0.001l0.011,0l0.012,0l0.012,-0.001l0.013,-0.001l0.014,-0.001l0.014,-0.002l0.015,-0.002l0.016,-0.002l0.017,-0.002l0.017,-0.003l0.018,-0.003l0.019,-0.004l0.02,-0.004l0.02,-0.004l0.022,-0.005l0.022,-0.005l0.022,-0.006l0.024,-0.006l0.024,-0.007l0.025,-0.007l0.026,-0.008l0.026,-0.009l0.028,-0.009l0.027,-0.009l0.029,-0.01l0.029,-0.011l0.03,-0.011l0.031,-0.012l0.031,-0.013l0.032,-0.013l0.033,-0.014l0.033,-0.014l0.034,-0.015l0.034,-0.016l0.035,-0.016l0.035,-0.017l0.036,-0.018l0.037,-0.018l0.037,-0.019l0.038,-0.02l0.038,-0.02l0.038,-0.021l0.039,-0.021l0.034,-0.019l0.086,-0.05l0.082,-0.049l0.083,-0.052l0.084,-0.054l0.086,-0.056l0.088,-0.059l0.088,-0.062l0.089,-0.063l0.09,-0.066l0.091,-0.068l0.092,-0.071l0.092,-0.072l0.093,-0.074l0.094,-0.077l0.094,-0.078l0.094,-0.08l0.095,-0.082l0.095,-0.084l0.095,-0.085l0.095,-0.087l0.095,-0.089l0.095,-0.089l0.096,-0.092l0.095,-0.092l0.094,-0.094l0.095,-0.094l0.095,-0.096l0.094,-0.097l0.093,-0.098l0.094,-0.098l0.093,-0.1l0.092,-0.1l0.092,-0.1l0.091,-0.101l0.091,-0.102l0.09,-0.102l0.09,-0.103l0.088,-0.102l0.088,-0.103l0.088,-0.103l0.086,-0.103l0.085,-0.103l0.085,-0.103l0.084,-0.102l0.082,-0.102l0.082,-0.103l0.081,-0.101l0.079,-0.101l0.079,-0.101l0.075,-0.097l0.154,-0.201l0.146,-0.195l0.142,-0.19l0.136,-0.187l0.131,-0.181l0.125,-0.176l0.12,-0.17l0.113,-0.163l0.107,-0.155l0.1,-0.148l0.094,-0.14l0.086,-0.131l0.08,-0.121l0.072,-0.112l0.063,-0.098l0.109,-0.172l0.075,-0.119l0.041,-0.068l0.013,-0.021l0.131,-0.202l0.145,-0.193l0.158,-0.183l0.17,-0.172l0.181,-0.16l0.191,-0.147l0.201,-0.134l0.209,-0.12l0.217,-0.106l0.224,-0.091l0.229,-0.075l0.234,-0.06l0.237,-0.044l0.24,-0.028l0.241,-0.011l0.242,0.005l11.081,0.596l0.015,0l0.019,0l0.019,0l0.019,0l0.019,0l0.018,-0.001l0.019,-0.002l0.018,-0.001l0.018,-0.002l0.019,-0.002l0.018,-0.003l0.018,-0.003l0.018,-0.003l0.018,-0.003l0.018,-0.004l0.018,-0.004l0.017,-0.004l0.018,-0.005l0.018,-0.005l0.017,-0.005l0.017,-0.005l0.018,-0.006l0.017,-0.006l0.017,-0.006l0.017,-0.007l0.017,-0.007l0.017,-0.007l0.016,-0.008l0.017,-0.007l0.016,-0.008l0.016,-0.009l0.017,-0.008l0.016,-0.009l0.015,-0.009l0.016,-0.009l0.016,-0.01l0.015,-0.01l0.015,-0.01l0.015,-0.01l0.015,-0.011l0.015,-0.011l0.014,-0.011l0.014,-0.011l0.014,-0.012l0.014,-0.012l0.014,-0.012l0.013,-0.012l0.014,-0.013l0.013,-0.012l0.013,-0.013l0.012,-0.014l0.013,-0.013l0.012,-0.014l0.012,-0.013l0.012,-0.015l0.011,-0.014l0.012,-0.014l0.011,-0.015l0.011,-0.015l0.011,-0.016l0.01,-0.015l0.01,-0.016l0.01,-0.016l0.01,-0.016l0.01,-0.017l0.009,-0.016l0.009,-0.017l0.009,-0.017l0.008,-0.017l0.008,-0.016l0.007,-0.017l0.008,-0.017l0.007,-0.017l0.006,-0.018l0.007,-0.017l0.006,-0.017l0.006,-0.017l0.005,-0.018l0.005,-0.017l0.005,-0.018l0.005,-0.018l0.004,-0.017l0.004,-0.018l0.004,-0.018l0.003,-0.018l0.003,-0.018l0.003,-0.018l0.002,-0.018l0.003,-0.018l0.002,-0.018l0.001,-0.018l0.001,-0.018l0.001,-0.019l0.001,-0.018l0,-0.018l0,-0.019l0,-0.018l0,-0.018l-0.001,-0.018l-0.001,-0.018l-0.002,-0.019l-0.002,-0.018l-0.002,-0.018l-0.002,-0.018l-0.003,-0.018l-0.003,-0.018l-0.003,-0.018l-0.004,-0.018l-0.003,-0.018l-0.005,-0.017l-0.004,-0.018l-0.005,-0.018l-0.005,-0.017l-0.005,-0.018l-0.006,-0.017l-0.006,-0.017l-0.006,-0.018l-0.007,-0.017l-0.007,-0.017l-0.007,-0.017l-0.007,-0.017l-0.008,-0.016l-0.008,-0.017l-0.009,-0.017l-0.008,-0.017l-0.009,-0.016l-0.01,-0.017l-0.017,-0.029l-5.37,-8.856l-0.121,-0.216l-0.106,-0.225l-0.09,-0.23l-0.073,-0.237l-0.058,-0.241l-0.04,-0.245l-0.023,-0.247l-0.006,-0.247l0.011,-0.248l0.028,-0.246l0.046,-0.244l0.062,-0.24l0.078,-0.235l3.622,-9.702l0.012,-0.033l0.006,-0.018l0.006,-0.018l0.006,-0.018l0.005,-0.018l0.005,-0.017l0.004,-0.018l0.004,-0.018l0.004,-0.018l0.004,-0.019l0.003,-0.018l0.003,-0.018l0.003,-0.018l0.002,-0.018l0.002,-0.018l0.002,-0.018l0.001,-0.018l0.001,-0.019l0.001,-0.018l0,-0.018l0.001,-0.018l-0.001,-0.019l0,-0.018l-0.001,-0.018l-0.001,-0.018l-0.001,-0.018l-0.002,-0.019l-0.002,-0.018l-0.002,-0.018l-0.003,-0.018l-0.002,-0.018l-0.004,-0.018l-0.003,-0.018l-0.004,-0.018l-0.004,-0.017l-0.004,-0.018l-0.005,-0.018l-0.005,-0.017l-0.005,-0.018l-0.006,-0.017l-0.005,-0.018l-0.006,-0.017l-0.007,-0.017l-0.007,-0.017l-0.006,-0.017l-0.008,-0.016l-0.007,-0.017l-0.008,-0.017l-0.008,-0.016l-0.008,-0.016l-0.009,-0.016l-0.009,-0.016l-0.009,-0.016l-0.01,-0.016l-0.009,-0.015l-0.011,-0.016l-0.01,-0.015l-0.01,-0.015l-0.011,-0.015l-0.012,-0.015l-0.011,-0.015l-0.012,-0.015l-0.012,-0.014l-0.013,-0.015l-0.012,-0.014l-0.013,-0.014l-0.013,-0.014l-0.014,-0.013l-0.013,-0.013l-0.014,-0.013l-0.013,-0.012l-0.014,-0.012l-0.014,-0.012l-0.015,-0.012l-0.014,-0.011l-0.014,-0.011l-0.015,-0.011l-0.015,-0.011l-0.015,-0.01l-0.015,-0.01l-0.016,-0.01l-0.015,-0.01l-0.016,-0.009l-0.016,-0.009l-0.016,-0.009l-0.016,-0.008l-0.016,-0.008l-0.017,-0.008l-0.016,-0.008l-0.017,-0.007l-0.017,-0.007l-0.017,-0.007l-0.017,-0.007l-0.017,-0.006l-0.017,-0.006l-0.017,-0.006l-0.018,-0.005l-0.017,-0.005l-0.018,-0.005l-0.018,-0.005l-0.017,-0.004l-0.018,-0.004l-0.018,-0.003l-0.018,-0.004l-0.018,-0.003l-0.018,-0.002l-0.018,-0.003l-0.018,-0.002l-0.018,-0.002l-0.018,-0.001l-0.019,-0.002l-0.018,-0.001l-0.018,0l-0.018,0l-0.019,0l-0.018,0l-0.018,0.001l-0.019,0.001l-0.018,0.001l-0.018,0.001l-0.019,0.002l-0.018,0.002l-0.019,0.003l-0.018,0.003l-0.018,0.003l-0.019,0.004l-0.019,0.003l-0.033,0.008l-10.082,2.37l-0.243,0.048l-0.246,0.032l-0.247,0.014l-0.248,-0.003l-0.247,-0.02l-0.245,-0.038l-0.242,-0.054l-0.238,-0.07l-0.232,-0.088l-0.225,-0.103l-0.218,-0.118l-0.209,-0.133l-0.199,-0.147l-8.108,-6.444l-0.028,-0.021l-0.015,-0.011l-0.015,-0.011l-0.015,-0.011l-0.016,-0.011l-0.016,-0.01l-0.015,-0.01l-0.016,-0.009l-0.016,-0.009l-0.016,-0.009l-0.016,-0.009l-0.017,-0.008l-0.016,-0.008l-0.016,-0.008l-0.017,-0.008l-0.017,-0.007l-0.017,-0.007l-0.017,-0.007l-0.017,-0.006l-0.017,-0.006l-0.017,-0.006l-0.018,-0.005l-0.017,-0.006l-0.018,-0.005l-0.017,-0.004l-0.018,-0.005l-0.018,-0.004l-0.018,-0.003l-0.018,-0.004l-0.018,-0.003l-0.018,-0.003l-0.018,-0.002l-0.018,-0.003l-0.018,-0.001l-0.018,-0.002l-0.018,-0.001l-0.019,-0.002l-0.018,0l-0.018,-0.001l-0.018,0l-0.018,0Z" style="fill:#00bcff;"/></svg>