<?xml version="1.0" encoding="UTF-8" standalone="no"?><!DOCTYPE svg PUBLIC "-//W3C//DTD SVG 1.1//EN" "http://www.w3.org/Graphics/SVG/1.1/DTD/svg11.dtd"><svg width="100%" height="100%" viewBox="0 0 60 59" version="1.1" xmlns="http://www.w3.org/2000/svg" xmlns:xlink="http://www.w3.org/1999/xlink" xml:space="preserve" xmlns:serif="http://www.serif.com/" style="fill-rule:evenodd;clip-rule:evenodd;stroke-linejoin:round;stroke-miterlimit:2;"><path d="M18.365,13.039c0.143,-1.713 1.218,-3.209 2.796,-3.891c1.578,-0.682 3.404,-0.441 4.75,0.629l8.12,6.453l10.097,-2.374c1.674,-0.393 3.428,0.167 4.565,1.457c1.136,1.29 1.471,3.101 0.869,4.712l-3.627,9.717l5.377,8.869c0.892,1.47 0.901,3.312 0.026,4.791c-0.876,1.48 -2.495,2.357 -4.213,2.283l-10.362,-0.447l-6.774,7.855c-1.123,1.302 -2.871,1.88 -4.549,1.505c-1.678,-0.376 -3.013,-1.645 -3.473,-3.302l-2.777,-9.993l-9.563,-4.014c-1.585,-0.666 -2.676,-2.15 -2.837,-3.862c-0.161,-1.712 0.633,-3.373 2.066,-4.323l8.647,-5.729l0.862,-10.336Z" style="fill:#00bcff;"/></svg>