<?xml version="1.0" encoding="UTF-8" standalone="no"?><!DOCTYPE svg PUBLIC "-//W3C//DTD SVG 1.1//EN" "http://www.w3.org/Graphics/SVG/1.1/DTD/svg11.dtd"><svg width="100%" height="100%" viewBox="0 0 64 64" version="1.1" xmlns="http://www.w3.org/2000/svg" xmlns:xlink="http://www.w3.org/1999/xlink" xml:space="preserve" xmlns:serif="http://www.serif.com/" style="fill-rule:evenodd;clip-rule:evenodd;stroke-linecap:round;stroke-linejoin:round;stroke-miterlimit:1.5;"><rect id="anywhere" x="0" y="0" width="64" height="64" style="fill:none;"/><g><path d="M6.578,53.578c19.531,-3.036 41.195,2.453 52.782,-1.063" style="fill:none;stroke:url(#_Linear1);stroke-width:2.12px;"/><path d="M56.56,29.873c0,-2.07 -1.678,-3.749 -3.749,-3.749c-7.145,0 -22.976,0 -33.91,0c-3.039,0 -5.955,1.208 -8.104,3.357c-2.149,2.15 -3.357,5.065 -3.357,8.105c0,3.347 0,6.689 0,8.876c0,1.38 1.119,2.499 2.499,2.499c8.421,0 35.701,0 44.122,0c1.38,0 2.499,-1.119 2.499,-2.499c0,-4.01 0,-11.902 0,-16.589Z" style="fill:none;stroke:url(#_Linear2);stroke-width:2.12px;"/><path d="M37.601,40.042c0,-0.355 -0.14,-0.694 -0.391,-0.945c-0.25,-0.25 -0.59,-0.391 -0.944,-0.391c-1.203,0 -2.961,0 -4.164,0c-0.354,0 -0.694,0.141 -0.945,0.391c-0.25,0.251 -0.391,0.59 -0.391,0.945c0,2.777 0,8.919 0,8.919l6.835,0l0,-8.919Z" style="fill:none;stroke:url(#_Linear3);stroke-width:2.12px;"/><circle cx="18.621" cy="48.961" r="3.555" style="fill:#fff;stroke:url(#_Linear4);stroke-width:2.12px;"/><circle cx="45.939" cy="48.961" r="3.555" style="fill:#fff;stroke:url(#_Linear5);stroke-width:2.12px;"/><path d="M56.56,33.241l-37.939,0c0,0 -4.531,0.847 -4.875,5.465l-6.306,5.127" style="fill:none;stroke:url(#_Linear6);stroke-width:2.12px;"/><path d="M23.484,26.124l0,7.117" style="fill:none;stroke:url(#_Linear7);stroke-width:2.12px;"/><path d="M32.79,26.124l0,7.117" style="fill:none;stroke:url(#_Linear8);stroke-width:2.12px;"/><path d="M42.011,26.124l0,7.117" style="fill:none;stroke:url(#_Linear9);stroke-width:2.12px;"/><path d="M49.767,26.124l0,7.117" style="fill:none;stroke:url(#_Linear10);stroke-width:2.12px;"/></g><defs><linearGradient id="_Linear1" x1="0" y1="0" x2="1" y2="0" gradientUnits="userSpaceOnUse" gradientTransform="matrix(90.3085,85.1784,-85.1784,90.3085,2.60404,21.8633)"><stop offset="0" style="stop-color:#00e6ff;stop-opacity:1"/><stop offset="1" style="stop-color:#ff00d4;stop-opacity:1"/></linearGradient><linearGradient id="_Linear2" x1="0" y1="0" x2="1" y2="0" gradientUnits="userSpaceOnUse" gradientTransform="matrix(90.3085,85.1784,-85.1784,90.3085,2.60404,21.8633)"><stop offset="0" style="stop-color:#00e6ff;stop-opacity:1"/><stop offset="1" style="stop-color:#ff00d4;stop-opacity:1"/></linearGradient><linearGradient id="_Linear3" x1="0" y1="0" x2="1" y2="0" gradientUnits="userSpaceOnUse" gradientTransform="matrix(90.3085,85.1784,-85.1784,90.3085,2.60404,21.8633)"><stop offset="0" style="stop-color:#00e6ff;stop-opacity:1"/><stop offset="1" style="stop-color:#ff00d4;stop-opacity:1"/></linearGradient><linearGradient id="_Linear4" x1="0" y1="0" x2="1" y2="0" gradientUnits="userSpaceOnUse" gradientTransform="matrix(90.3085,85.1784,-85.1784,90.3085,2.60404,21.8633)"><stop offset="0" style="stop-color:#00e6ff;stop-opacity:1"/><stop offset="1" style="stop-color:#ff00d4;stop-opacity:1"/></linearGradient><linearGradient id="_Linear5" x1="0" y1="0" x2="1" y2="0" gradientUnits="userSpaceOnUse" gradientTransform="matrix(90.3085,85.1784,-85.1784,90.3085,2.60404,21.8633)"><stop offset="0" style="stop-color:#00e6ff;stop-opacity:1"/><stop offset="1" style="stop-color:#ff00d4;stop-opacity:1"/></linearGradient><linearGradient id="_Linear6" x1="0" y1="0" x2="1" y2="0" gradientUnits="userSpaceOnUse" gradientTransform="matrix(90.3085,85.1784,-85.1784,90.3085,2.60404,21.8633)"><stop offset="0" style="stop-color:#00e6ff;stop-opacity:1"/><stop offset="1" style="stop-color:#ff00d4;stop-opacity:1"/></linearGradient><linearGradient id="_Linear7" x1="0" y1="0" x2="1" y2="0" gradientUnits="userSpaceOnUse" gradientTransform="matrix(90.3085,85.1784,-85.1784,90.3085,2.60404,21.8633)"><stop offset="0" style="stop-color:#00e6ff;stop-opacity:1"/><stop offset="1" style="stop-color:#ff00d4;stop-opacity:1"/></linearGradient><linearGradient id="_Linear8" x1="0" y1="0" x2="1" y2="0" gradientUnits="userSpaceOnUse" gradientTransform="matrix(90.3085,85.1784,-85.1784,90.3085,2.60404,21.8633)"><stop offset="0" style="stop-color:#00e6ff;stop-opacity:1"/><stop offset="1" style="stop-color:#ff00d4;stop-opacity:1"/></linearGradient><linearGradient id="_Linear9" x1="0" y1="0" x2="1" y2="0" gradientUnits="userSpaceOnUse" gradientTransform="matrix(90.3085,85.1784,-85.1784,90.3085,2.60404,21.8633)"><stop offset="0" style="stop-color:#00e6ff;stop-opacity:1"/><stop offset="1" style="stop-color:#ff00d4;stop-opacity:1"/></linearGradient><linearGradient id="_Linear10" x1="0" y1="0" x2="1" y2="0" gradientUnits="userSpaceOnUse" gradientTransform="matrix(90.3085,85.1784,-85.1784,90.3085,2.60404,21.8633)"><stop offset="0" style="stop-color:#00e6ff;stop-opacity:1"/><stop offset="1" style="stop-color:#ff00d4;stop-opacity:1"/></linearGradient></defs></svg>