<?xml version="1.0" encoding="UTF-8" standalone="no"?><!DOCTYPE svg PUBLIC "-//W3C//DTD SVG 1.1//EN" "http://www.w3.org/Graphics/SVG/1.1/DTD/svg11.dtd"><svg width="100%" height="100%" viewBox="0 0 64 64" version="1.1" xmlns="http://www.w3.org/2000/svg" xmlns:xlink="http://www.w3.org/1999/xlink" xml:space="preserve" xmlns:serif="http://www.serif.com/" style="fill-rule:evenodd;clip-rule:evenodd;stroke-linecap:round;stroke-linejoin:round;stroke-miterlimit:1.5;"><rect id="ArtBoard1" x="0" y="0" width="64" height="64" style="fill:none;"/><circle cx="39.854" cy="40.84" r="19.019" style="fill:none;"/><clipPath id="_clip1"><circle cx="39.854" cy="40.84" r="19.019"/></clipPath><g clip-path="url(#_clip1)"><circle cx="39.854" cy="40.84" r="18.935" style="fill:none;stroke:url(#_Linear2);stroke-width:4.05px;"/><path d="M8.131,45.627l63.446,0" style="fill:none;stroke:url(#_Linear3);stroke-width:2.12px;"/><path d="M8.131,35.61l63.446,0" style="fill:none;stroke:url(#_Linear4);stroke-width:2.12px;"/><path d="M48.957,16.011c-23.892,16.373 -23.792,32.746 0,49.119" style="fill:none;stroke:url(#_Linear5);stroke-width:2.12px;"/><path d="M31.075,16.011c23.892,16.373 23.792,32.746 0,49.119" style="fill:none;stroke:url(#_Linear6);stroke-width:2.12px;"/></g><path d="M34.694,8.265c0,-1.933 -1.567,-3.501 -3.501,-3.501l-23.913,0c-1.934,0 -3.501,1.568 -3.501,3.501l0,23.914c0,1.933 1.567,3.5 3.501,3.5l23.913,0c1.934,0 3.501,-1.567 3.501,-3.5l0,-23.914Z" style="fill:url(#_Linear7);"/><clipPath id="_clip8"><path d="M34.694,8.265c0,-1.933 -1.567,-3.501 -3.501,-3.501l-23.913,0c-1.934,0 -3.501,1.568 -3.501,3.501l0,23.914c0,1.933 1.567,3.5 3.501,3.5l23.913,0c1.934,0 3.501,-1.567 3.501,-3.5l0,-23.914Z"/></clipPath><g clip-path="url(#_clip8)"><path d="M21.557,21.003c0.495,-0.802 1.369,-1.29 2.311,-1.29c0.942,0 1.817,0.488 2.312,1.29c3.81,6.17 10.991,17.8 10.991,17.8l-26.606,0c0,0 7.182,-11.63 10.992,-17.8Z" style="fill:url(#_Linear9);"/><path d="M10.405,16.55c0.495,-0.802 1.369,-1.29 2.311,-1.29c0.942,0 1.817,0.488 2.312,1.29c4.443,7.195 13.741,22.253 13.741,22.253l-32.106,0c0,0 9.299,-15.058 13.742,-22.253Z" style="fill:url(#_Linear10);"/><circle cx="26.723" cy="11.874" r="3.232" style="fill:#fff;"/></g><defs><linearGradient id="_Linear2" x1="0" y1="0" x2="1" y2="0" gradientUnits="userSpaceOnUse" gradientTransform="matrix(46.9517,73.2278,-73.2278,46.9517,20.8352,16.0107)"><stop offset="0" style="stop-color:#00d8ff;stop-opacity:1"/><stop offset="1" style="stop-color:#ff00d4;stop-opacity:1"/></linearGradient><linearGradient id="_Linear3" x1="0" y1="0" x2="1" y2="0" gradientUnits="userSpaceOnUse" gradientTransform="matrix(46.9517,73.2278,-73.2278,46.9517,20.8352,16.0107)"><stop offset="0" style="stop-color:#00d8ff;stop-opacity:0.53"/><stop offset="1" style="stop-color:#ff00d4;stop-opacity:0.53"/></linearGradient><linearGradient id="_Linear4" x1="0" y1="0" x2="1" y2="0" gradientUnits="userSpaceOnUse" gradientTransform="matrix(46.9517,73.2278,-73.2278,46.9517,20.8352,16.0107)"><stop offset="0" style="stop-color:#00d8ff;stop-opacity:0.53"/><stop offset="1" style="stop-color:#ff00d4;stop-opacity:0.53"/></linearGradient><linearGradient id="_Linear5" x1="0" y1="0" x2="1" y2="0" gradientUnits="userSpaceOnUse" gradientTransform="matrix(46.9517,73.2278,-73.2278,46.9517,20.8352,16.0107)"><stop offset="0" style="stop-color:#00d8ff;stop-opacity:0.53"/><stop offset="1" style="stop-color:#ff00d4;stop-opacity:0.53"/></linearGradient><linearGradient id="_Linear6" x1="0" y1="0" x2="1" y2="0" gradientUnits="userSpaceOnUse" gradientTransform="matrix(46.9517,73.2278,-73.2278,46.9517,20.8352,16.0107)"><stop offset="0" style="stop-color:#00d8ff;stop-opacity:0.53"/><stop offset="1" style="stop-color:#ff00d4;stop-opacity:0.53"/></linearGradient><linearGradient id="_Linear7" x1="0" y1="0" x2="1" y2="0" gradientUnits="userSpaceOnUse" gradientTransform="matrix(32.531,35.0344,-35.0344,32.531,9.05688,8.10345)"><stop offset="0" style="stop-color:#00d8ff;stop-opacity:1"/><stop offset="0.69" style="stop-color:#00a5ff;stop-opacity:1"/><stop offset="1" style="stop-color:#eb0078;stop-opacity:1"/></linearGradient><linearGradient id="_Linear9" x1="0" y1="0" x2="1" y2="0" gradientUnits="userSpaceOnUse" gradientTransform="matrix(-20.4497,52.3217,-52.3217,-20.4497,28.5809,18.3906)"><stop offset="0" style="stop-color:#0078ff;stop-opacity:0.53"/><stop offset="1" style="stop-color:#ff00a7;stop-opacity:0.53"/></linearGradient><linearGradient id="_Linear10" x1="0" y1="0" x2="1" y2="0" gradientUnits="userSpaceOnUse" gradientTransform="matrix(-30.4819,58.7095,-58.7095,-30.4819,12.073,18.983)"><stop offset="0" style="stop-color:#004ea4;stop-opacity:1"/><stop offset="1" style="stop-color:#95005c;stop-opacity:1"/></linearGradient></defs></svg>